<svg version="1.1" id="Layer_1" xmlns="http://www.w3.org/2000/svg" xmlns:xlink="http://www.w3.org/1999/xlink" x="0px" y="0px"
     viewBox="0 0 112.4 117.9" style="enable-background:new 0 0 112.4 117.9;" xml:space="preserve">
    <path class="st0" fill="#252525" d="M108.2,63.9l0.3-0.2c2.4-1.7,3.9-4.5,3.9-7.5c0-5.1-4.2-9.3-9.3-9.3H9.3c-5.1,0-9.3,4.2-9.3,9.3
	c0,3.5,2,6.6,5.1,8.2l0.4,0.2l9.2,43.4c0,5.5,4.5,10,10,9.9h64.1c2.7,0,5.3-1.1,7.2-3c1.7-1.6,2.6-3.9,2.6-6.2v-0.1v-0.1L108.2,63.9
	z M94.1,108c-0.1,2.8-2.4,5.1-5.2,5.1H24.7c-3,0-5.2-2.4-5.3-5.8l-9.5-45c-0.2-0.9-0.8-1.6-1.7-1.8c-2-0.5-3.4-2.2-3.5-4.3
	c0-2.5,2-4.5,4.5-4.5h0h93.9c2.5,0,4.5,2,4.5,4.5c0,1.7-1,3.3-2.6,4c-0.7,0.3-1.1,0.9-1.3,1.6L94.1,108z M30.4,100.4
	c-0.7,0-1.3-0.6-1.4-1.3V71.4c0-0.8,0.6-1.4,1.4-1.4c0,0,0,0,0,0H31c0.8,0,1.4,0.6,1.4,1.4l0,0v27.8c0,0.8-0.6,1.4-1.4,1.4
	L30.4,100.4z M46.4,99.1V71.4c0-0.8,0.6-1.4,1.4-1.4h0.7c0.8,0,1.4,0.6,1.4,1.4l0,0v27.8c0,0.8-0.6,1.4-1.4,1.4l0,0h-0.7
	C47,100.5,46.4,99.9,46.4,99.1C46.4,99.1,46.3,99.1,46.4,99.1L46.4,99.1z M65.1,100.4c-0.8,0-1.4-0.6-1.4-1.4l0,0V71.4
	c0-0.7,0.6-1.4,1.3-1.4h0.7c0.8,0,1.4,0.6,1.4,1.4c0,0,0,0,0,0v27.8c0,0.8-0.6,1.4-1.4,1.4c0,0,0,0,0,0L65.1,100.4z M84.5,99.1
	c0,0.8-0.6,1.4-1.4,1.4c0,0,0,0,0,0h-0.7c-0.8,0-1.4-0.6-1.4-1.4c0,0,0,0,0,0V71.4c0-0.7,0.6-1.4,1.4-1.4h0.7c0.8,0,1.4,0.6,1.4,1.4
	c0,0,0,0,0,0L84.5,99.1z M23.3,33.7L23.3,33.7v0.2c0.1,1.1-0.4,2.3-1.3,2.9c-0.8,0.4-1.7,0.4-2.5,0c-1-0.6-1.5-1.7-1.4-2.9
	C20.6,12.8,39.8-2.2,60.8,0.3c17.6,2.1,31.5,16,33.7,33.7c0,1.4-1.2,2.6-2.6,2.6c0,0,0,0,0,0c-1.2,0-2.5-0.7-2.6-2.8
	C86.6,15.5,69.8,2.9,51.6,5.5C36.9,7.6,25.4,19.1,23.3,33.7L23.3,33.7z"/>
</svg>